<svg width="780" height="438" xmlns="http://www.w3.org/2000/svg">
  <defs>
    <filter id="softBlur" x="-50%" y="-50%" width="200%" height="200%">
      <feGaussianBlur in="SourceGraphic" stdDeviation="1" />
    </filter>
  </defs>
  <rect width="100%" height="100%" fill="white"/>
  <path d="M 687.2197265625,263.3572998046875 Q 462.3546447753906,113.0949478149414 726.5262451171875,210.1101531982422" fill="none" stroke="rgb(165,214,22)" stroke-width="265.3484191894531" stroke-opacity="0.01145260687917471" stroke-linecap="round" filter="url(#softBlur)" />
  <path d="M 270.52386474609375,381.73974609375 Q 10.261923789978027,407.3050231933594 -11.792777061462402,134.21249389648438" fill="none" stroke="rgb(185,225,74)" stroke-width="52.034358978271484" stroke-opacity="0.04918072372674942" stroke-linecap="round" filter="url(#softBlur)" />
  <path d="M 418.06903076171875,262.3280029296875 Q 677.0297241210938,10.711003303527832 232.71554565429688,32.55094528198242" fill="none" stroke="rgb(247,125,13)" stroke-width="272.6323547363281" stroke-opacity="0.05536920949816704" stroke-linecap="round" filter="url(#softBlur)" />
  <path d="M 698.2556762695312,279.43316650390625 Q 388.20721435546875,71.53092193603516 777.9743041992188,240.4311065673828" fill="none" stroke="rgb(246,229,42)" stroke-width="259.8054504394531" stroke-opacity="0.018747609108686447" stroke-linecap="round" filter="url(#softBlur)" />
  <path d="M 217.8699951171875,162.2945098876953 Q 443.57220458984375,63.369205474853516 298.1839294433594,297.02081298828125" fill="none" stroke="rgb(210,166,196)" stroke-width="13.708575248718262" stroke-opacity="0.0006789817125536501" stroke-linecap="round" filter="url(#softBlur)" />
  <path d="M 47.4876823425293,369.1067810058594 Q 1150.1962890625,181.12033081054688 14.430289268493652,212.66632080078125" fill="none" stroke="rgb(224,253,1)" stroke-width="173.63571166992188" stroke-opacity="0.994437575340271" stroke-linecap="round" filter="url(#softBlur)" />
  <path d="M 661.2330322265625,362.7233581542969 Q 743.4964599609375,90.37507629394531 40.30528259277344,406.4227600097656" fill="none" stroke="rgb(0,0,0)" stroke-width="87.2240982055664" stroke-opacity="0.9974331259727478" stroke-linecap="round" filter="url(#softBlur)" />
  <path d="M 153.6227569580078,36.9444580078125 Q 727.0343017578125,323.063720703125 603.8773803710938,132.48272705078125" fill="none" stroke="rgb(218,103,59)" stroke-width="345.09765625" stroke-opacity="0.0046100011095404625" stroke-linecap="round" filter="url(#softBlur)" />
  <path d="M 395.85662841796875,173.67486572265625 Q 43.64710998535156,190.70591735839844 151.1723175048828,70.88916778564453" fill="none" stroke="rgb(233,187,35)" stroke-width="229.32760620117188" stroke-opacity="0.009871271438896656" stroke-linecap="round" filter="url(#softBlur)" />
  <path d="M 15.323246955871582,164.4835662841797 Q 459.9482727050781,209.5980682373047 556.8444213867188,372.5608825683594" fill="none" stroke="rgb(176,253,9)" stroke-width="95.71481323242188" stroke-opacity="0.6352084279060364" stroke-linecap="round" filter="url(#softBlur)" />
  <path d="M 13.712652206420898,366.380615234375 Q 47.81918716430664,-16.469038009643555 573.2783813476562,402.6387023925781" fill="none" stroke="rgb(192,190,0)" stroke-width="104.29633331298828" stroke-opacity="0.9822236895561218" stroke-linecap="round" filter="url(#softBlur)" />
  <path d="M 251.32501220703125,423.015380859375 Q 710.1035766601562,174.97235107421875 433.53192138671875,5.051415920257568" fill="none" stroke="rgb(0,0,0)" stroke-width="38.273040771484375" stroke-opacity="0.9995245933532715" stroke-linecap="round" filter="url(#softBlur)" />
  <path d="M 744.8236083984375,142.1549072265625 Q 257.6673278808594,360.9715881347656 311.85052490234375,82.96429443359375" fill="none" stroke="rgb(220,121,29)" stroke-width="251.5925750732422" stroke-opacity="0.012424072250723839" stroke-linecap="round" filter="url(#softBlur)" />
  <path d="M 482.61181640625,370.66070556640625 Q 766.431884765625,-16.946989059448242 48.97319412231445,436.3365173339844" fill="none" stroke="rgb(0,0,2)" stroke-width="61.709232330322266" stroke-opacity="0.9970165491104126" stroke-linecap="round" filter="url(#softBlur)" />
  <path d="M 761.3765258789062,411.59466552734375 Q 687.44140625,64.42402648925781 319.832763671875,27.522602081298828" fill="none" stroke="rgb(208,45,3)" stroke-width="123.31182098388672" stroke-opacity="0.9992744326591492" stroke-linecap="round" filter="url(#softBlur)" />
  <path d="M 374.451416015625,430.41693115234375 Q 328.12158203125,353.6705017089844 438.41851806640625,319.9237365722656" fill="none" stroke="rgb(195,131,0)" stroke-width="48.60552215576172" stroke-opacity="0.99986732006073" stroke-linecap="round" filter="url(#softBlur)" />
  <path d="M 469.3443298339844,168.98558044433594 Q 417.2484130859375,275.8076477050781 536.383056640625,357.4443664550781" fill="none" stroke="rgb(128,173,151)" stroke-width="11.868191719055176" stroke-opacity="0.0016589391743764281" stroke-linecap="round" filter="url(#softBlur)" />
  <path d="M 614.0226440429688,238.68731689453125 Q 82.40826416015625,386.38250732421875 612.65234375,184.94480895996094" fill="none" stroke="rgb(184,81,60)" stroke-width="117.33006286621094" stroke-opacity="0.0003596939495764673" stroke-linecap="round" filter="url(#softBlur)" />
  <path d="M 233.11776733398438,73.68529510498047 Q 457.513916015625,230.44236755371094 1.0263159275054932,222.37872314453125" fill="none" stroke="rgb(243,181,49)" stroke-width="173.3255615234375" stroke-opacity="0.010600843466818333" stroke-linecap="round" filter="url(#softBlur)" />
  <path d="M 296.5378112792969,222.09788513183594 Q 747.4302978515625,114.76596069335938 484.00531005859375,239.7878875732422" fill="none" stroke="rgb(217,23,63)" stroke-width="120.00067901611328" stroke-opacity="0.0008195310365408659" stroke-linecap="round" filter="url(#softBlur)" />
  <path d="M 772.3576049804688,34.64442443847656 Q 680.3410034179688,269.1780090332031 387.8761901855469,409.1748046875" fill="none" stroke="rgb(174,2,0)" stroke-width="74.81727600097656" stroke-opacity="0.9939899444580078" stroke-linecap="round" filter="url(#softBlur)" />
  <path d="M 147.40383911132812,141.01901245117188 Q 48.84944534301758,420.9176330566406 723.2457885742188,65.05017852783203" fill="none" stroke="rgb(184,250,21)" stroke-width="210.93499755859375" stroke-opacity="0.0026813424192368984" stroke-linecap="round" filter="url(#softBlur)" />
  <path d="M 349.22271728515625,156.3971405029297 Q 412.90020751953125,223.16195678710938 673.5096435546875,52.53720474243164" fill="none" stroke="rgb(219,243,31)" stroke-width="355.4830017089844" stroke-opacity="0.010492878034710884" stroke-linecap="round" filter="url(#softBlur)" />
  <path d="M 469.56591796875,277.5268859863281 Q 141.3418426513672,119.72405242919922 362.8696594238281,28.88839340209961" fill="none" stroke="rgb(243,236,18)" stroke-width="211.71029663085938" stroke-opacity="0.005105424672365189" stroke-linecap="round" filter="url(#softBlur)" />
  <path d="M 545.5538330078125,375.1142883300781 Q 624.1452026367188,269.7863464355469 260.1907043457031,192.38490295410156" fill="none" stroke="rgb(228,252,19)" stroke-width="79.63994598388672" stroke-opacity="0.0033824665006250143" stroke-linecap="round" filter="url(#softBlur)" />
  <path d="M 660.5233764648438,282.42431640625 Q 35.14547348022461,176.4732208251953 342.7030029296875,125.04598999023438" fill="none" stroke="rgb(149,240,37)" stroke-width="193.0261688232422" stroke-opacity="0.0013003089698031545" stroke-linecap="round" filter="url(#softBlur)" />
  <path d="M 31.653072357177734,405.7163391113281 Q 562.1680297851562,109.48101043701172 219.93629455566406,402.4122009277344" fill="none" stroke="rgb(226,136,0)" stroke-width="92.17655944824219" stroke-opacity="0.997012734413147" stroke-linecap="round" filter="url(#softBlur)" />
  <path d="M 556.1266479492188,5.800199031829834 Q 705.8629150390625,49.635215759277344 791.82373046875,375.48590087890625" fill="none" stroke="rgb(202,198,0)" stroke-width="194.9946746826172" stroke-opacity="0.992919385433197" stroke-linecap="round" filter="url(#softBlur)" />
  <path d="M 453.5220642089844,111.24542236328125 Q 438.0975341796875,397.7613220214844 187.24142456054688,148.0364227294922" fill="none" stroke="rgb(225,155,128)" stroke-width="13.65506362915039" stroke-opacity="0.0005312262801453471" stroke-linecap="round" filter="url(#softBlur)" />
  <path d="M 140.0144805908203,389.0956726074219 Q 145.9593048095703,327.05914306640625 120.4622802734375,371.2060852050781" fill="none" stroke="rgb(0,0,3)" stroke-width="31.16250991821289" stroke-opacity="0.9966128468513489" stroke-linecap="round" filter="url(#softBlur)" />
  <path d="M 253.78854370117188,200.57740783691406 Q 31.846128463745117,14.967077255249023 158.19483947753906,346.3924865722656" fill="none" stroke="rgb(226,192,127)" stroke-width="24.83721923828125" stroke-opacity="0.0012789237080141902" stroke-linecap="round" filter="url(#softBlur)" />
  <path d="M 466.86077880859375,-2.27333664894104 Q 506.5679016113281,178.0180206298828 224.61013793945312,433.6766357421875" fill="none" stroke="rgb(90,26,0)" stroke-width="64.9314193725586" stroke-opacity="0.9984899759292603" stroke-linecap="round" filter="url(#softBlur)" />
  <path d="M 534.9172973632812,197.48745727539062 Q 680.3952026367188,82.34088897705078 242.7340850830078,110.772705078125" fill="none" stroke="rgb(186,45,80)" stroke-width="81.65045928955078" stroke-opacity="0.00044413431896828115" stroke-linecap="round" filter="url(#softBlur)" />
  <path d="M 81.96237182617188,412.783203125 Q 841.4141235351562,309.5943298339844 270.0803527832031,362.7480773925781" fill="none" stroke="rgb(244,193,0)" stroke-width="52.77517318725586" stroke-opacity="0.9944770932197571" stroke-linecap="round" filter="url(#softBlur)" />
  <path d="M 757.0267333984375,83.64075469970703 Q 159.49790954589844,310.8125305175781 239.42608642578125,416.4664306640625" fill="none" stroke="rgb(215,162,0)" stroke-width="83.27632141113281" stroke-opacity="0.9988307356834412" stroke-linecap="round" filter="url(#softBlur)" />
  <path d="M 338.8335876464844,301.6759948730469 Q 508.914306640625,239.09921264648438 610.4228515625,1.481076717376709" fill="none" stroke="rgb(240,231,4)" stroke-width="158.7722930908203" stroke-opacity="0.033694539219141006" stroke-linecap="round" filter="url(#softBlur)" />
  <path d="M 543.1228637695312,345.75433349609375 Q 255.17306518554688,145.2527618408203 22.156965255737305,5.285603046417236" fill="none" stroke="rgb(187,196,2)" stroke-width="121.05205535888672" stroke-opacity="0.8309192657470703" stroke-linecap="round" filter="url(#softBlur)" />
  <path d="M 180.20449829101562,383.2767333984375 Q 160.12841796875,377.87335205078125 615.447265625,358.6201171875" fill="none" stroke="rgb(200,251,2)" stroke-width="37.496604919433594" stroke-opacity="0.7080408930778503" stroke-linecap="round" filter="url(#softBlur)" />
  <path d="M 319.50140380859375,355.62213134765625 Q 574.4178466796875,37.33890914916992 305.8957824707031,440.8078308105469" fill="none" stroke="rgb(246,237,53)" stroke-width="12.512075424194336" stroke-opacity="0.0017540632979944348" stroke-linecap="round" filter="url(#softBlur)" />
  <path d="M 657.5834350585938,58.437076568603516 Q 704.2171630859375,402.919921875 282.46484375,122.64930725097656" fill="none" stroke="rgb(226,250,7)" stroke-width="258.587646484375" stroke-opacity="0.022220704704523087" stroke-linecap="round" filter="url(#softBlur)" />
  <path d="M 294.62994384765625,12.03837776184082 Q 134.24581909179688,208.9328155517578 78.8590316772461,428.71588134765625" fill="none" stroke="rgb(204,125,0)" stroke-width="52.31734848022461" stroke-opacity="0.9869175553321838" stroke-linecap="round" filter="url(#softBlur)" />
  <path d="M 382.1036682128906,12.515542984008789 Q 756.0728759765625,508.176513671875 527.6282958984375,375.0993347167969" fill="none" stroke="rgb(254,254,0)" stroke-width="57.670509338378906" stroke-opacity="0.9863144159317017" stroke-linecap="round" filter="url(#softBlur)" />
  <path d="M 448.48358154296875,40.066680908203125 Q 745.9971313476562,195.125244140625 431.955078125,79.42584991455078" fill="none" stroke="rgb(116,181,16)" stroke-width="146.98245239257812" stroke-opacity="0.0017253286205232143" stroke-linecap="round" filter="url(#softBlur)" />
  <path d="M 277.1088562011719,304.5231628417969 Q 480.19024658203125,321.3916320800781 426.27899169921875,394.8106384277344" fill="none" stroke="rgb(94,167,94)" stroke-width="10.420044898986816" stroke-opacity="0.002153195906430483" stroke-linecap="round"  />
  <path d="M 652.6657104492188,110.98127746582031 Q 563.4530639648438,135.05572509765625 34.680789947509766,101.38339233398438" fill="none" stroke="rgb(246,253,3)" stroke-width="361.0208740234375" stroke-opacity="0.1096489429473877" stroke-linecap="round" filter="url(#softBlur)" />
  <path d="M 372.1914367675781,266.24383544921875 Q 547.6622314453125,304.3136901855469 721.5318603515625,126.4526138305664" fill="none" stroke="rgb(246,236,24)" stroke-width="199.50804138183594" stroke-opacity="0.009405825287103653" stroke-linecap="round" filter="url(#softBlur)" />
  <path d="M 576.5703125,424.63140869140625 Q 680.5604858398438,66.24304962158203 595.7949829101562,207.3284149169922" fill="none" stroke="rgb(245,83,1)" stroke-width="78.5133056640625" stroke-opacity="0.9951370358467102" stroke-linecap="round" filter="url(#softBlur)" />
  <path d="M 549.2535400390625,337.748291015625 Q 131.6778106689453,172.63632202148438 536.5006713867188,360.2330017089844" fill="none" stroke="rgb(249,254,4)" stroke-width="87.0696792602539" stroke-opacity="0.0017519871471449733" stroke-linecap="round" filter="url(#softBlur)" />
  <path d="M 427.0415954589844,315.68634033203125 Q 555.1488647460938,117.65484619140625 484.86163330078125,389.9304504394531" fill="none" stroke="rgb(0,0,12)" stroke-width="28.89152717590332" stroke-opacity="0.9990243911743164" stroke-linecap="round" filter="url(#softBlur)" />
  <path d="M 490.3476257324219,92.5313491821289 Q 732.3894653320312,195.3193359375 184.68585205078125,69.78534698486328" fill="none" stroke="rgb(233,192,57)" stroke-width="152.14056396484375" stroke-opacity="0.0011700863251462579" stroke-linecap="round" filter="url(#softBlur)" />
  <path d="M 247.237060546875,126.09624481201172 Q 363.17572021484375,322.2447814941406 211.2575225830078,316.89398193359375" fill="none" stroke="rgb(225,195,31)" stroke-width="79.9711685180664" stroke-opacity="0.0017727264203131199" stroke-linecap="round" filter="url(#softBlur)" />
  <path d="M 20.718097686767578,67.8415756225586 Q 804.0389404296875,22.06181526184082 61.83559036254883,93.29951477050781" fill="none" stroke="rgb(201,207,1)" stroke-width="483.2193908691406" stroke-opacity="0.9900788068771362" stroke-linecap="round" filter="url(#softBlur)" />
  <path d="M 363.0162048339844,250.2655487060547 Q 658.453857421875,29.361080169677734 718.1851806640625,139.40097045898438" fill="none" stroke="rgb(199,248,19)" stroke-width="230.80523681640625" stroke-opacity="0.0018800084944814444" stroke-linecap="round" filter="url(#softBlur)" />
  <path d="M 638.1372680664062,16.647811889648438 Q 600.4935302734375,393.39825439453125 244.0755615234375,229.546875" fill="none" stroke="rgb(229,209,72)" stroke-width="92.98560333251953" stroke-opacity="0.0012575063155964017" stroke-linecap="round" filter="url(#softBlur)" />
  <path d="M 125.1115493774414,378.9703369140625 Q 360.52850341796875,331.44232177734375 609.3409423828125,404.364990234375" fill="none" stroke="rgb(0,0,4)" stroke-width="22.544240951538086" stroke-opacity="0.9857847094535828" stroke-linecap="round" filter="url(#softBlur)" />
  <path d="M 609.9884033203125,84.91436767578125 Q 334.7557067871094,-83.11309814453125 612.8593139648438,401.79010009765625" fill="none" stroke="rgb(0,0,2)" stroke-width="41.72595977783203" stroke-opacity="0.9974859952926636" stroke-linecap="round" filter="url(#softBlur)" />
  <path d="M 194.0371551513672,136.79888916015625 Q 774.4310302734375,178.7617645263672 364.674560546875,151.42520141601562" fill="none" stroke="rgb(222,55,74)" stroke-width="40.10381317138672" stroke-opacity="0.0004277845146134496" stroke-linecap="round" filter="url(#softBlur)" />
  <path d="M 405.6450500488281,6.908288478851318 Q 171.30682373046875,361.34857177734375 453.5431823730469,136.12167358398438" fill="none" stroke="rgb(230,229,13)" stroke-width="177.8133087158203" stroke-opacity="0.009770654141902924" stroke-linecap="round" filter="url(#softBlur)" />
  <path d="M 502.1474304199219,292.7419738769531 Q 67.47001647949219,239.2948760986328 550.1682739257812,27.206661224365234" fill="none" stroke="rgb(170,234,10)" stroke-width="87.43209075927734" stroke-opacity="0.0019770946819335222" stroke-linecap="round" filter="url(#softBlur)" />
  <path d="M 30.897415161132812,33.26015090942383 Q 390.9629821777344,379.66845703125 564.6036376953125,190.44664001464844" fill="none" stroke="rgb(216,83,7)" stroke-width="211.2279510498047" stroke-opacity="0.011339855380356312" stroke-linecap="round" filter="url(#softBlur)" />
  <path d="M 386.7376708984375,266.8273620605469 Q 246.67369079589844,90.62303924560547 644.3873901367188,286.65325927734375" fill="none" stroke="rgb(254,206,253)" stroke-width="52.924156188964844" stroke-opacity="0.9959742426872253" stroke-linecap="round" filter="url(#softBlur)" />
  <path d="M 340.82135009765625,212.43983459472656 Q 530.1061401367188,420.6643981933594 708.4034423828125,159.36802673339844" fill="none" stroke="rgb(202,107,13)" stroke-width="118.4460220336914" stroke-opacity="0.0041763498447835445" stroke-linecap="round" filter="url(#softBlur)" />
  <path d="M 677.9818115234375,178.25970458984375 Q 800.2254638671875,234.6055450439453 724.6865234375,5.236374378204346" fill="none" stroke="rgb(204,203,2)" stroke-width="205.19740295410156" stroke-opacity="0.9738414883613586" stroke-linecap="round" filter="url(#softBlur)" />
  <path d="M 567.835205078125,436.3418884277344 Q -178.4612579345703,-122.11041259765625 476.89288330078125,126.71065521240234" fill="none" stroke="rgb(0,0,0)" stroke-width="63.97492599487305" stroke-opacity="0.9970955848693848" stroke-linecap="round" filter="url(#softBlur)" />
  <path d="M 59.395511627197266,59.07316589355469 Q 621.3479614257812,313.1173400878906 -5.102500915527344,333.9324645996094" fill="none" stroke="rgb(191,209,1)" stroke-width="91.14479064941406" stroke-opacity="0.9915511608123779" stroke-linecap="round" filter="url(#softBlur)" />
  <path d="M 321.5194091796875,364.2365417480469 Q 191.02978515625,373.5867614746094 614.9683837890625,419.1318359375" fill="none" stroke="rgb(1,1,3)" stroke-width="17.39348793029785" stroke-opacity="0.46304067969322205" stroke-linecap="round" filter="url(#softBlur)" />
  <path d="M 10.5982027053833,269.0384826660156 Q 256.74853515625,242.8195037841797 527.5223388671875,407.4095458984375" fill="none" stroke="rgb(0,0,1)" stroke-width="31.875110626220703" stroke-opacity="0.9699177145957947" stroke-linecap="round" filter="url(#softBlur)" />
  <path d="M 441.5410461425781,26.595539093017578 Q 214.45144653320312,17.38960075378418 548.6259155273438,250.38145446777344" fill="none" stroke="rgb(201,195,73)" stroke-width="43.77937698364258" stroke-opacity="0.005306896287947893" stroke-linecap="round" filter="url(#softBlur)" />
  <path d="M 162.09817504882812,32.57365036010742 Q 148.2635498046875,15.69576644897461 186.86965942382812,5.713359832763672" fill="none" stroke="rgb(202,199,0)" stroke-width="400.72552490234375" stroke-opacity="0.9558636546134949" stroke-linecap="round" filter="url(#softBlur)" />
  <path d="M 281.6290283203125,59.126678466796875 Q 410.86260986328125,244.32357788085938 207.28829956054688,192.8887939453125" fill="none" stroke="rgb(228,125,4)" stroke-width="233.09832763671875" stroke-opacity="0.0037834872491657734" stroke-linecap="round" filter="url(#softBlur)" />
  <path d="M 392.5946044921875,133.65463256835938 Q 195.13002014160156,358.61328125 347.6954040527344,325.6820068359375" fill="none" stroke="rgb(213,197,62)" stroke-width="76.13650512695312" stroke-opacity="0.0005744016962125897" stroke-linecap="round" filter="url(#softBlur)" />
  <path d="M 282.77508544921875,213.1000213623047 Q 409.4362487792969,319.064697265625 257.93487548828125,283.322509765625" fill="none" stroke="rgb(252,253,254)" stroke-width="71.97517395019531" stroke-opacity="0.9990311861038208" stroke-linecap="round" filter="url(#softBlur)" />
  <path d="M 249.62237548828125,91.67030334472656 Q 743.4647216796875,128.2196502685547 277.5217590332031,381.8703918457031" fill="none" stroke="rgb(253,254,4)" stroke-width="31.032665252685547" stroke-opacity="0.08159156888723373" stroke-linecap="round" filter="url(#softBlur)" />
  <path d="M 541.8228759765625,389.36773681640625 Q 716.2879028320312,164.3655242919922 552.5132446289062,424.056884765625" fill="none" stroke="rgb(214,154,0)" stroke-width="62.34681701660156" stroke-opacity="0.9954012632369995" stroke-linecap="round" filter="url(#softBlur)" />
  <path d="M 605.2423095703125,149.8448944091797 Q 0.770863950252533,179.27244567871094 54.380157470703125,133.09884643554688" fill="none" stroke="rgb(234,241,12)" stroke-width="173.50767517089844" stroke-opacity="0.006780278403311968" stroke-linecap="round" filter="url(#softBlur)" />
  <path d="M 31.00059700012207,-9.124034881591797 Q 593.137939453125,83.28945922851562 247.6968536376953,333.2379455566406" fill="none" stroke="rgb(194,161,18)" stroke-width="71.4914321899414" stroke-opacity="0.005736016668379307" stroke-linecap="round" filter="url(#softBlur)" />
  <path d="M 544.8554077148438,167.16246032714844 Q 295.816162109375,106.89777374267578 400.33331298828125,434.8490295410156" fill="none" stroke="rgb(2,0,4)" stroke-width="32.27048873901367" stroke-opacity="0.9990386962890625" stroke-linecap="round" filter="url(#softBlur)" />
  <path d="M 273.72235107421875,278.9244384765625 Q 350.9292907714844,277.6565856933594 80.48421478271484,376.1382141113281" fill="none" stroke="rgb(0,0,9)" stroke-width="14.988463401794434" stroke-opacity="0.9985318183898926" stroke-linecap="round" filter="url(#softBlur)" />
  <path d="M 702.8612060546875,405.05078125 Q 487.5153503417969,210.4952392578125 68.07908630371094,121.33096313476562" fill="none" stroke="rgb(248,251,55)" stroke-width="43.21143341064453" stroke-opacity="0.02639065310359001" stroke-linecap="round" filter="url(#softBlur)" />
  <path d="M 210.11651611328125,380.6430969238281 Q 19.99088478088379,70.89026641845703 191.6204833984375,81.26254272460938" fill="none" stroke="rgb(192,206,170)" stroke-width="7.672966003417969" stroke-opacity="0.01111646555364132" stroke-linecap="round"  />
  <path d="M 423.13763427734375,183.5494842529297 Q 570.610107421875,218.2423858642578 395.60443115234375,265.78497314453125" fill="none" stroke="rgb(128,151,80)" stroke-width="13.073874473571777" stroke-opacity="0.0019392198882997036" stroke-linecap="round" filter="url(#softBlur)" />
  <path d="M 150.70535278320312,236.58180236816406 Q 757.7566528320312,426.3453063964844 187.69601440429688,225.73912048339844" fill="none" stroke="rgb(187,167,51)" stroke-width="33.89516830444336" stroke-opacity="0.0003166529641021043" stroke-linecap="round" filter="url(#softBlur)" />
  <path d="M 165.43235778808594,218.52320861816406 Q 261.0593566894531,209.68228149414062 606.1924438476562,185.81895446777344" fill="none" stroke="rgb(206,95,166)" stroke-width="11.88591194152832" stroke-opacity="0.003688357537612319" stroke-linecap="round" filter="url(#softBlur)" />
  <path d="M 178.7511444091797,148.77203369140625 Q 478.6902160644531,347.17510986328125 187.4808349609375,368.92449951171875" fill="none" stroke="rgb(236,254,0)" stroke-width="35.6973762512207" stroke-opacity="0.9172012805938721" stroke-linecap="round" filter="url(#softBlur)" />
  <path d="M 335.5601806640625,141.60153198242188 Q 198.6861572265625,233.52882385253906 147.8865203857422,226.24876403808594" fill="none" stroke="rgb(218,113,27)" stroke-width="131.5915069580078" stroke-opacity="0.0007591809844598174" stroke-linecap="round" filter="url(#softBlur)" />
  <path d="M 188.5880126953125,430.8643798828125 Q 583.6797485351562,417.6362609863281 590.183837890625,111.73902893066406" fill="none" stroke="rgb(243,187,161)" stroke-width="10.739593505859375" stroke-opacity="0.01895325817167759" stroke-linecap="round" filter="url(#softBlur)" />
  <path d="M 501.8287658691406,21.52438735961914 Q 123.2718505859375,368.9093322753906 420.13555908203125,64.81546020507812" fill="none" stroke="rgb(246,227,115)" stroke-width="23.906085968017578" stroke-opacity="0.0010794366244226694" stroke-linecap="round" filter="url(#softBlur)" />
  <path d="M 669.4681396484375,6.4802117347717285 Q 725.9918212890625,273.6019287109375 762.130126953125,247.325439453125" fill="none" stroke="rgb(204,203,0)" stroke-width="162.4057159423828" stroke-opacity="0.9715888500213623" stroke-linecap="round" filter="url(#softBlur)" />
  <path d="M -15.637489318847656,245.45640563964844 Q 797.9026489257812,400.4655456542969 325.9282531738281,372.11444091796875" fill="none" stroke="rgb(0,0,1)" stroke-width="45.78795623779297" stroke-opacity="0.9995930790901184" stroke-linecap="round" filter="url(#softBlur)" />
  <path d="M 583.650390625,149.59869384765625 Q 133.05917358398438,389.73883056640625 279.0724182128906,55.25658416748047" fill="none" stroke="rgb(247,230,68)" stroke-width="25.001461029052734" stroke-opacity="0.0019468349637463689" stroke-linecap="round" filter="url(#softBlur)" />
  <path d="M 492.7733154296875,91.94975280761719 Q -0.5723023414611816,262.8182678222656 354.76361083984375,191.51992797851562" fill="none" stroke="rgb(184,154,54)" stroke-width="16.68879508972168" stroke-opacity="0.00043044096673838794" stroke-linecap="round" filter="url(#softBlur)" />
  <path d="M 32.358341217041016,357.4432373046875 Q 588.7562866210938,43.802913665771484 137.23782348632812,21.77057647705078" fill="none" stroke="rgb(234,234,201)" stroke-width="5.7719807624816895" stroke-opacity="0.005321217700839043" stroke-linecap="round"  />
  <path d="M 343.9346618652344,396.45330810546875 Q 812.0470581054688,412.7897033691406 520.9187622070312,393.650634765625" fill="none" stroke="rgb(214,116,1)" stroke-width="29.48138427734375" stroke-opacity="0.9941136240959167" stroke-linecap="round" filter="url(#softBlur)" />
  <path d="M 586.8679809570312,372.2919921875 Q 493.5275573730469,114.45690155029297 431.53118896484375,199.1029052734375" fill="none" stroke="rgb(192,252,0)" stroke-width="96.80056762695312" stroke-opacity="0.724797248840332" stroke-linecap="round" filter="url(#softBlur)" />
  <path d="M 87.69903564453125,372.75408935546875 Q 163.9024200439453,-7.706381797790527 425.34320068359375,408.7005310058594" fill="none" stroke="rgb(208,232,0)" stroke-width="58.3347053527832" stroke-opacity="0.9971476197242737" stroke-linecap="round" filter="url(#softBlur)" />
  <path d="M 297.808837890625,190.46400451660156 Q 348.05743408203125,228.84640502929688 308.21038818359375,375.5074462890625" fill="none" stroke="rgb(0,0,11)" stroke-width="52.529640197753906" stroke-opacity="0.9995458722114563" stroke-linecap="round" filter="url(#softBlur)" />
  <path d="M 292.283203125,235.43104553222656 Q 450.5891418457031,253.14340209960938 68.29973602294922,292.1464538574219" fill="none" stroke="rgb(254,247,254)" stroke-width="47.79706573486328" stroke-opacity="0.9992802739143372" stroke-linecap="round" filter="url(#softBlur)" />
  <path d="M 134.98744201660156,133.89239501953125 Q 380.1955261230469,485.5188903808594 487.2749328613281,321.77288818359375" fill="none" stroke="rgb(97,120,76)" stroke-width="19.50349998474121" stroke-opacity="0.9820089340209961" stroke-linecap="round" filter="url(#softBlur)" />
  <path d="M 737.9840087890625,355.3037414550781 Q 512.3037719726562,172.40777587890625 746.557373046875,30.038145065307617" fill="none" stroke="rgb(204,221,0)" stroke-width="112.41846466064453" stroke-opacity="0.9212416410446167" stroke-linecap="round" filter="url(#softBlur)" />
  <path d="M 110.587158203125,403.0453796386719 Q 24.67129135131836,55.986045837402344 366.1711730957031,176.4590606689453" fill="none" stroke="rgb(198,164,0)" stroke-width="38.55755615234375" stroke-opacity="0.9989099502563477" stroke-linecap="round" filter="url(#softBlur)" />
  <path d="M 384.4612121582031,72.36530303955078 Q 292.00225830078125,200.89051818847656 213.97352600097656,201.37860107421875" fill="none" stroke="rgb(207,156,112)" stroke-width="9.469342231750488" stroke-opacity="0.003054495668038726" stroke-linecap="round"  />
  <path d="M 241.7426300048828,330.10064697265625 Q 289.40606689453125,248.6226348876953 777.71630859375,361.9566345214844" fill="none" stroke="rgb(241,47,48)" stroke-width="34.37800216674805" stroke-opacity="0.003691665595397353" stroke-linecap="round" filter="url(#softBlur)" />
  <path d="M 658.6493530273438,386.16619873046875 Q 581.366943359375,149.91859436035156 543.1973266601562,99.31297302246094" fill="none" stroke="rgb(0,0,7)" stroke-width="46.26441955566406" stroke-opacity="0.9980639815330505" stroke-linecap="round" filter="url(#softBlur)" />
  <path d="M 33.43985366821289,426.8421325683594 Q 103.73451232910156,131.88851928710938 694.1409301757812,231.435546875" fill="none" stroke="rgb(220,191,0)" stroke-width="45.21235275268555" stroke-opacity="0.952516496181488" stroke-linecap="round" filter="url(#softBlur)" />
  <path d="M 62.41099548339844,195.08926391601562 Q 721.8527221679688,-22.223108291625977 121.30744171142578,293.4878234863281" fill="none" stroke="rgb(254,249,254)" stroke-width="61.98676300048828" stroke-opacity="0.9981839060783386" stroke-linecap="round" filter="url(#softBlur)" />
  <path d="M 506.4418029785156,258.88812255859375 Q 578.3825073242188,322.0639953613281 531.9467163085938,332.0093078613281" fill="none" stroke="rgb(73,1,12)" stroke-width="72.3528060913086" stroke-opacity="0.024805426597595215" stroke-linecap="round" filter="url(#softBlur)" />
  <path d="M 652.8884887695312,231.0933837890625 Q 155.6280975341797,106.21000671386719 499.0369873046875,83.46211242675781" fill="none" stroke="rgb(205,226,108)" stroke-width="11.199313163757324" stroke-opacity="0.0011541096027940512" stroke-linecap="round" filter="url(#softBlur)" />
  <path d="M 658.8567504882812,272.1229553222656 Q 113.16746520996094,344.5531005859375 253.95660400390625,101.84800720214844" fill="none" stroke="rgb(238,161,86)" stroke-width="14.572620391845703" stroke-opacity="0.0023153387010097504" stroke-linecap="round" filter="url(#softBlur)" />
  <path d="M 132.9690704345703,55.8534049987793 Q 646.5633544921875,199.91702270507812 17.213703155517578,275.2552490234375" fill="none" stroke="rgb(199,204,1)" stroke-width="62.72124481201172" stroke-opacity="0.9944502115249634" stroke-linecap="round" filter="url(#softBlur)" />
  <path d="M 91.8768310546875,369.3467712402344 Q 254.70494079589844,405.8117980957031 476.31640625,111.3249740600586" fill="none" stroke="rgb(26,11,119)" stroke-width="5.569684982299805" stroke-opacity="0.0048307874239981174" stroke-linecap="round"  />
  <path d="M 604.0829467773438,408.2111511230469 Q 102.03434753417969,85.45767211914062 566.3021240234375,304.11102294921875" fill="none" stroke="rgb(158,224,65)" stroke-width="11.13770580291748" stroke-opacity="0.0015190027188509703" stroke-linecap="round" filter="url(#softBlur)" />
  <path d="M 570.37255859375,148.05194091796875 Q 220.71267700195312,130.6453857421875 755.5244140625,67.638427734375" fill="none" stroke="rgb(97,247,22)" stroke-width="45.86415100097656" stroke-opacity="0.000651882088277489" stroke-linecap="round" filter="url(#softBlur)" />
  <path d="M 765.10986328125,15.240596771240234 Q 578.68115234375,135.25704956054688 760.416748046875,122.54467010498047" fill="none" stroke="rgb(204,201,0)" stroke-width="146.0975799560547" stroke-opacity="0.8091462254524231" stroke-linecap="round" filter="url(#softBlur)" />
  <path d="M 599.4063110351562,86.45970153808594 Q 309.0531005859375,106.56063079833984 418.77825927734375,90.64397430419922" fill="none" stroke="rgb(253,253,2)" stroke-width="56.3492431640625" stroke-opacity="0.6992315053939819" stroke-linecap="round" filter="url(#softBlur)" />
  <path d="M 470.5949401855469,150.99371337890625 Q 666.5658569335938,8.729044914245605 552.4092407226562,280.94512939453125" fill="none" stroke="rgb(253,0,5)" stroke-width="45.1572151184082" stroke-opacity="0.9985906481742859" stroke-linecap="round" filter="url(#softBlur)" />
  <path d="M 27.319425582885742,200.60302734375 Q 422.4591064453125,71.15497589111328 445.9599609375,15.719878196716309" fill="none" stroke="rgb(213,194,0)" stroke-width="151.5060272216797" stroke-opacity="0.8550651669502258" stroke-linecap="round" filter="url(#softBlur)" />
  <path d="M 503.65533447265625,28.95470428466797 Q 699.0354614257812,175.3094482421875 581.5852661132812,70.26289367675781" fill="none" stroke="rgb(105,209,15)" stroke-width="17.526079177856445" stroke-opacity="0.004927570000290871" stroke-linecap="round" filter="url(#softBlur)" />
  <path d="M 726.6865844726562,432.25238037109375 Q 527.9219360351562,222.15557861328125 418.1943359375,30.6018009185791" fill="none" stroke="rgb(41,0,1)" stroke-width="45.39209747314453" stroke-opacity="0.9803832173347473" stroke-linecap="round" filter="url(#softBlur)" />
  <path d="M 610.0253295898438,412.5891418457031 Q 18.964937210083008,391.3589782714844 216.5091094970703,412.4021911621094" fill="none" stroke="rgb(205,123,0)" stroke-width="30.684043884277344" stroke-opacity="0.9916386008262634" stroke-linecap="round" filter="url(#softBlur)" />
  <path d="M 425.6036682128906,154.05795288085938 Q 112.3907241821289,131.46994018554688 541.6305541992188,158.93821716308594" fill="none" stroke="rgb(156,200,141)" stroke-width="12.744136810302734" stroke-opacity="0.002271767472848296" stroke-linecap="round" filter="url(#softBlur)" />
  <path d="M 182.9775848388672,250.23886108398438 Q 349.7009582519531,51.498497009277344 767.1065063476562,433.0305480957031" fill="none" stroke="rgb(196,175,0)" stroke-width="48.13344192504883" stroke-opacity="0.9963668584823608" stroke-linecap="round" filter="url(#softBlur)" />
  <path d="M 507.25518798828125,16.19017791748047 Q 25.453418731689453,207.18801879882812 302.9953918457031,105.08348846435547" fill="none" stroke="rgb(251,214,26)" stroke-width="73.70909118652344" stroke-opacity="0.005266923923045397" stroke-linecap="round" filter="url(#softBlur)" />
  <path d="M 61.78573226928711,105.41075897216797 Q -12.64957046508789,369.4520568847656 694.4801025390625,225.4815673828125" fill="none" stroke="rgb(0,0,2)" stroke-width="21.24471092224121" stroke-opacity="0.9921857714653015" stroke-linecap="round" filter="url(#softBlur)" />
  <path d="M 111.5069580078125,335.368896484375 Q 407.4532470703125,413.0205078125 417.615234375,323.8443603515625" fill="none" stroke="rgb(168,197,132)" stroke-width="3.1997034549713135" stroke-opacity="0.0029093106277287006" stroke-linecap="round"  />
  <path d="M 359.8017883300781,294.149658203125 Q 580.8685913085938,347.93670654296875 345.6600036621094,37.1236686706543" fill="none" stroke="rgb(254,213,253)" stroke-width="50.04547119140625" stroke-opacity="0.9994233846664429" stroke-linecap="round" filter="url(#softBlur)" />
  <path d="M 314.6052551269531,82.53507232666016 Q 617.947509765625,212.94471740722656 567.2674560546875,53.01348114013672" fill="none" stroke="rgb(0,0,10)" stroke-width="34.71583557128906" stroke-opacity="0.9995890259742737" stroke-linecap="round" filter="url(#softBlur)" />
  <path d="M 216.0902099609375,169.47354125976562 Q 694.9559936523438,153.3950653076172 116.79064178466797,155.35220336914062" fill="none" stroke="rgb(173,214,13)" stroke-width="90.73561096191406" stroke-opacity="0.003329656319692731" stroke-linecap="round" filter="url(#softBlur)" />
  <path d="M 387.1724853515625,57.22705078125 Q 99.6347885131836,87.60139465332031 354.2750549316406,409.2185363769531" fill="none" stroke="rgb(202,177,126)" stroke-width="4.17631721496582" stroke-opacity="0.004779652692377567" stroke-linecap="round"  />
  <path d="M 215.66236877441406,317.6325988769531 Q 167.8633575439453,406.61578369140625 206.59182739257812,444.6131591796875" fill="none" stroke="rgb(200,154,0)" stroke-width="32.564605712890625" stroke-opacity="0.9834716320037842" stroke-linecap="round" filter="url(#softBlur)" />
  <path d="M 197.8592071533203,64.32251739501953 Q 481.21343994140625,304.866455078125 670.4284057617188,285.5617980957031" fill="none" stroke="rgb(234,200,11)" stroke-width="117.01327514648438" stroke-opacity="0.015802135691046715" stroke-linecap="round" filter="url(#softBlur)" />
  <path d="M 422.5540466308594,428.0045471191406 Q 404.8939514160156,312.5726318359375 594.1148681640625,151.11839294433594" fill="none" stroke="rgb(204,0,0)" stroke-width="47.55449295043945" stroke-opacity="0.9697272181510925" stroke-linecap="round" filter="url(#softBlur)" />
  <path d="M 722.6716918945312,423.2989196777344 Q 749.8706665039062,233.910400390625 53.313507080078125,196.23388671875" fill="none" stroke="rgb(218,192,0)" stroke-width="56.528629302978516" stroke-opacity="0.9862448573112488" stroke-linecap="round" filter="url(#softBlur)" />
  <path d="M 311.21392822265625,195.5227508544922 Q 696.5327758789062,178.69032287597656 509.1273498535156,42.320064544677734" fill="none" stroke="rgb(254,223,254)" stroke-width="42.42666244506836" stroke-opacity="0.9995688796043396" stroke-linecap="round" filter="url(#softBlur)" />
  <path d="M 543.2395629882812,304.148681640625 Q 261.84185791015625,445.727294921875 655.0396728515625,236.27528381347656" fill="none" stroke="rgb(231,250,4)" stroke-width="32.28641128540039" stroke-opacity="0.7965359687805176" stroke-linecap="round" filter="url(#softBlur)" />
  <path d="M 347.54339599609375,26.366281509399414 Q 502.2494201660156,406.91497802734375 647.4840087890625,246.06712341308594" fill="none" stroke="rgb(206,212,0)" stroke-width="131.5870819091797" stroke-opacity="0.9900749325752258" stroke-linecap="round" filter="url(#softBlur)" />
  <path d="M 400.0466003417969,96.85211944580078 Q 268.70806884765625,426.3437194824219 588.4171142578125,242.7573699951172" fill="none" stroke="rgb(253,252,252)" stroke-width="16.393991470336914" stroke-opacity="0.7383859157562256" stroke-linecap="round" filter="url(#softBlur)" />
  <path d="M 71.72545623779297,47.13935089111328 Q 440.70758056640625,-3.0330569744110107 27.303089141845703,140.20582580566406" fill="none" stroke="rgb(205,204,0)" stroke-width="304.31005859375" stroke-opacity="0.9967213273048401" stroke-linecap="round" filter="url(#softBlur)" />
  <path d="M -16.514474868774414,153.7194061279297 Q 610.0880737304688,393.74114990234375 387.1535949707031,381.2707214355469" fill="none" stroke="rgb(253,254,250)" stroke-width="28.47645378112793" stroke-opacity="0.9733378291130066" stroke-linecap="round" filter="url(#softBlur)" />
  <path d="M 641.8696899414062,375.4079895019531 Q 556.2780151367188,57.48319625854492 -37.7335205078125,383.4105224609375" fill="none" stroke="rgb(0,0,0)" stroke-width="27.103588104248047" stroke-opacity="0.9968507885932922" stroke-linecap="round" filter="url(#softBlur)" />
  <path d="M 176.98985290527344,79.2371597290039 Q 229.2155303955078,321.76129150390625 503.0533447265625,334.5701904296875" fill="none" stroke="rgb(182,234,29)" stroke-width="21.49452781677246" stroke-opacity="0.0011265502544119954" stroke-linecap="round" filter="url(#softBlur)" />
  <path d="M 10.096541404724121,279.0284729003906 Q 401.0460510253906,162.30992126464844 501.71044921875,39.44989013671875" fill="none" stroke="rgb(210,210,0)" stroke-width="84.38619995117188" stroke-opacity="0.9916150569915771" stroke-linecap="round" filter="url(#softBlur)" />
  <path d="M 295.4307556152344,70.78568267822266 Q 644.5460815429688,169.26934814453125 587.6581420898438,104.54817199707031" fill="none" stroke="rgb(242,0,0)" stroke-width="41.53955078125" stroke-opacity="0.9943512678146362" stroke-linecap="round" filter="url(#softBlur)" />
  <path d="M 603.45263671875,320.1975402832031 Q 180.0692596435547,171.01144409179688 2.6802430152893066,5.391637325286865" fill="none" stroke="rgb(187,239,103)" stroke-width="4.676319122314453" stroke-opacity="0.002343283034861088" stroke-linecap="round"  />
  <path d="M 485.17254638671875,298.06512451171875 Q 163.88954162597656,416.1332702636719 250.68283081054688,337.3363952636719" fill="none" stroke="rgb(220,173,60)" stroke-width="6.561915397644043" stroke-opacity="0.001159379375167191" stroke-linecap="round"  />
  <path d="M 786.889404296875,215.0564422607422 Q 85.890380859375,320.102294921875 316.64129638671875,88.21576690673828" fill="none" stroke="rgb(212,254,0)" stroke-width="43.946044921875" stroke-opacity="0.9735272526741028" stroke-linecap="round" filter="url(#softBlur)" />
  <path d="M 729.9392700195312,402.47210693359375 Q 492.8746032714844,317.9452209472656 578.4544677734375,114.10774993896484" fill="none" stroke="rgb(2,0,6)" stroke-width="38.977359771728516" stroke-opacity="0.73353111743927" stroke-linecap="round" filter="url(#softBlur)" />
  <path d="M 419.53167724609375,23.20171546936035 Q 275.122314453125,325.6619873046875 451.74859619140625,72.39070892333984" fill="none" stroke="rgb(206,210,1)" stroke-width="94.34833526611328" stroke-opacity="0.9945480227470398" stroke-linecap="round" filter="url(#softBlur)" />
  <path d="M 295.6590270996094,196.23748779296875 Q -14.346649169921875,98.12708282470703 604.8010864257812,302.78082275390625" fill="none" stroke="rgb(221,238,7)" stroke-width="71.49529266357422" stroke-opacity="0.9959652423858643" stroke-linecap="round" filter="url(#softBlur)" />
  <path d="M 167.14260864257812,288.75006103515625 Q 563.7005615234375,405.5964050292969 493.9615783691406,180.7937774658203" fill="none" stroke="rgb(254,252,254)" stroke-width="29.412561416625977" stroke-opacity="0.9977152347564697" stroke-linecap="round" filter="url(#softBlur)" />
  <path d="M 460.21722412109375,59.59209442138672 Q 11.203120231628418,408.85223388671875 144.28627014160156,62.40255355834961" fill="none" stroke="rgb(220,144,105)" stroke-width="5.4275898933410645" stroke-opacity="0.0025413937401026487" stroke-linecap="round"  />
  <path d="M 203.82452392578125,278.9666748046875 Q 114.51490783691406,364.5477294921875 351.89361572265625,47.454978942871094" fill="none" stroke="rgb(0,0,1)" stroke-width="23.805967330932617" stroke-opacity="0.9937904477119446" stroke-linecap="round" filter="url(#softBlur)" />
  <path d="M 269.674560546875,236.9540557861328 Q 172.60897827148438,352.6573486328125 412.4398193359375,237.45875549316406" fill="none" stroke="rgb(254,253,254)" stroke-width="28.623550415039062" stroke-opacity="0.9991558790206909" stroke-linecap="round" filter="url(#softBlur)" />
  <path d="M 148.52293395996094,108.53453826904297 Q 264.1059265136719,381.0397644042969 418.93597412109375,435.67401123046875" fill="none" stroke="rgb(225,101,98)" stroke-width="3.9080607891082764" stroke-opacity="0.004295074846595526" stroke-linecap="round"  />
  <path d="M 112.92091369628906,42.8483772277832 Q 538.1610107421875,410.5989074707031 511.9515380859375,311.4190979003906" fill="none" stroke="rgb(117,202,88)" stroke-width="5.86743688583374" stroke-opacity="0.013080704025924206" stroke-linecap="round"  />
  <path d="M 124.76757049560547,370.1705017089844 Q 349.0913391113281,274.3871765136719 137.8526611328125,303.5555419921875" fill="none" stroke="rgb(0,0,13)" stroke-width="25.45719337463379" stroke-opacity="0.9945312142372131" stroke-linecap="round" filter="url(#softBlur)" />
  <path d="M 606.7594604492188,80.13336944580078 Q 279.9327697753906,323.458251953125 431.67095947265625,265.88818359375" fill="none" stroke="rgb(253,250,252)" stroke-width="14.250842094421387" stroke-opacity="0.4685803949832916" stroke-linecap="round" filter="url(#softBlur)" />
  <path d="M 295.76361083984375,140.6846160888672 Q 6.722177505493164,298.1122131347656 501.3638916015625,172.8470916748047" fill="none" stroke="rgb(207,204,0)" stroke-width="81.77986907958984" stroke-opacity="0.9979771971702576" stroke-linecap="round" filter="url(#softBlur)" />
  <path d="M 236.0388946533203,80.08075714111328 Q 364.712890625,202.740478515625 112.34711456298828,293.1058044433594" fill="none" stroke="rgb(196,185,95)" stroke-width="5.519927024841309" stroke-opacity="0.005881363991647959" stroke-linecap="round"  />
  <path d="M 401.26385498046875,60.355873107910156 Q 473.4937438964844,10.104984283447266 486.37188720703125,290.3013610839844" fill="none" stroke="rgb(245,202,254)" stroke-width="35.62500762939453" stroke-opacity="0.7229259610176086" stroke-linecap="round" filter="url(#softBlur)" />
  <path d="M 710.717041015625,393.16943359375 Q 26.039249420166016,22.998563766479492 22.43006706237793,340.55780029296875" fill="none" stroke="rgb(221,205,0)" stroke-width="72.06367492675781" stroke-opacity="0.9961076378822327" stroke-linecap="round" filter="url(#softBlur)" />
  <path d="M 685.453857421875,172.7902374267578 Q 637.5709228515625,69.89141082763672 6.925760269165039,104.6404800415039" fill="none" stroke="rgb(196,223,13)" stroke-width="115.58905029296875" stroke-opacity="0.00021677892073057592" stroke-linecap="round" filter="url(#softBlur)" />
  <path d="M 256.72686767578125,19.703388214111328 Q 751.7559204101562,390.64154052734375 676.0701293945312,151.71566772460938" fill="none" stroke="rgb(207,13,3)" stroke-width="41.621341705322266" stroke-opacity="0.03415219113230705" stroke-linecap="round" filter="url(#softBlur)" />
  <path d="M 532.1685180664062,141.98770141601562 Q -27.48236083984375,189.60325622558594 604.9971923828125,430.72174072265625" fill="none" stroke="rgb(143,130,0)" stroke-width="23.07328987121582" stroke-opacity="0.992821991443634" stroke-linecap="round" filter="url(#softBlur)" />
  <path d="M 624.9701538085938,313.6271667480469 Q 287.1626892089844,210.67739868164062 407.9393005371094,159.7530059814453" fill="none" stroke="rgb(237,216,252)" stroke-width="38.00166320800781" stroke-opacity="0.40735960006713867" stroke-linecap="round" filter="url(#softBlur)" />
  <path d="M 579.8701782226562,0.116762675344944 Q 75.65975952148438,450.2541809082031 658.6206665039062,62.06679916381836" fill="none" stroke="rgb(217,194,0)" stroke-width="27.570310592651367" stroke-opacity="0.8785412311553955" stroke-linecap="round" filter="url(#softBlur)" />
  <path d="M 461.1576232910156,9.496821403503418 Q -30.151180267333984,277.8544006347656 -43.07717514038086,227.3968505859375" fill="none" stroke="rgb(204,205,0)" stroke-width="184.61404418945312" stroke-opacity="0.9981125593185425" stroke-linecap="round" filter="url(#softBlur)" />
  <path d="M 312.7023620605469,315.2543029785156 Q -15.077011108398438,371.2625427246094 457.4386901855469,314.7612609863281" fill="none" stroke="rgb(219,229,1)" stroke-width="52.16849899291992" stroke-opacity="0.9966083765029907" stroke-linecap="round" filter="url(#softBlur)" />
  <path d="M 319.3929748535156,108.04408264160156 Q 90.88855743408203,6.169384956359863 70.4000473022461,20.64483642578125" fill="none" stroke="rgb(204,218,152)" stroke-width="4.408958911895752" stroke-opacity="0.011785865761339664" stroke-linecap="round"  />
  <path d="M 568.0243530273438,270.91021728515625 Q 574.044921875,92.99646759033203 492.5144958496094,261.28179931640625" fill="none" stroke="rgb(218,0,9)" stroke-width="58.22639846801758" stroke-opacity="0.9997091889381409" stroke-linecap="round" filter="url(#softBlur)" />
  <path d="M 459.3222961425781,293.9008483886719 Q 419.0290832519531,425.33349609375 838.0979614257812,332.36834716796875" fill="none" stroke="rgb(2,4,2)" stroke-width="20.871435165405273" stroke-opacity="0.105289526283741" stroke-linecap="round" filter="url(#softBlur)" />
  <path d="M 386.9471130371094,380.3280334472656 Q 584.1658935546875,35.10727310180664 347.02655029296875,199.4335479736328" fill="none" stroke="rgb(213,214,0)" stroke-width="70.84439086914062" stroke-opacity="0.9983944296836853" stroke-linecap="round" filter="url(#softBlur)" />
  <path d="M 506.23504638671875,262.9593505859375 Q 345.2299499511719,255.7931671142578 463.1812438964844,162.69134521484375" fill="none" stroke="rgb(241,150,55)" stroke-width="4.917695999145508" stroke-opacity="0.0035190798807889223" stroke-linecap="round"  />
  <path d="M 489.1073913574219,235.0352020263672 Q 504.7712097167969,183.9739990234375 602.1009521484375,166.29811096191406" fill="none" stroke="rgb(0,0,13)" stroke-width="16.619075775146484" stroke-opacity="0.82874596118927" stroke-linecap="round" filter="url(#softBlur)" />
  <path d="M 585.0205688476562,431.037841796875 Q 502.60052490234375,341.1722717285156 260.343505859375,138.2167510986328" fill="none" stroke="rgb(216,175,79)" stroke-width="5.920370578765869" stroke-opacity="0.008615091443061829" stroke-linecap="round"  />
  <path d="M 667.1950073242188,420.6516418457031 Q 188.3143310546875,255.3484649658203 666.8017578125,73.31624603271484" fill="none" stroke="rgb(233,243,129)" stroke-width="3.594240427017212" stroke-opacity="0.036860350519418716" stroke-linecap="round"  />
  <path d="M 259.6351623535156,433.6651306152344 Q 196.0175323486328,74.86712646484375 656.0311889648438,273.3257751464844" fill="none" stroke="rgb(162,175,2)" stroke-width="23.093088150024414" stroke-opacity="0.9581636786460876" stroke-linecap="round" filter="url(#softBlur)" />
  <path d="M 665.8696899414062,70.1940689086914 Q 64.71219635009766,355.7055969238281 200.766357421875,106.48858642578125" fill="none" stroke="rgb(232,20,0)" stroke-width="34.01368713378906" stroke-opacity="0.041395049542188644" stroke-linecap="round" filter="url(#softBlur)" />
  <path d="M 9.292242050170898,382.4175720214844 Q 295.33673095703125,96.57293701171875 209.8311767578125,246.62486267089844" fill="none" stroke="rgb(208,210,0)" stroke-width="35.44977951049805" stroke-opacity="0.9971177577972412" stroke-linecap="round" filter="url(#softBlur)" />
  <path d="M 368.5647277832031,408.8870849609375 Q 348.675537109375,237.74612426757812 527.2156372070312,348.195556640625" fill="none" stroke="rgb(237,238,5)" stroke-width="43.91414260864258" stroke-opacity="0.6076756715774536" stroke-linecap="round" filter="url(#softBlur)" />
  <path d="M 115.77236938476562,383.2533264160156 Q 89.1183853149414,30.26808738708496 140.08209228515625,426.1605224609375" fill="none" stroke="rgb(252,253,242)" stroke-width="1.2892879247665405" stroke-opacity="0.04887333884835243" stroke-linecap="round"  />
  <path d="M 124.0916748046875,301.7782287597656 Q 650.0299682617188,56.22481918334961 472.2936096191406,340.1177673339844" fill="none" stroke="rgb(2,1,13)" stroke-width="15.267655372619629" stroke-opacity="0.14396075904369354" stroke-linecap="round" filter="url(#softBlur)" />
  <path d="M 424.6352233886719,372.0354309082031 Q 490.3512268066406,185.5313720703125 277.585205078125,233.5832977294922" fill="none" stroke="rgb(207,211,0)" stroke-width="61.140384674072266" stroke-opacity="0.9993364214897156" stroke-linecap="round" filter="url(#softBlur)" />
  <path d="M 581.306640625,112.75255584716797 Q 568.3982543945312,219.72618103027344 221.83689880371094,445.3846435546875" fill="none" stroke="rgb(208,0,1)" stroke-width="23.923805236816406" stroke-opacity="0.5125752687454224" stroke-linecap="round" filter="url(#softBlur)" />
  <path d="M 515.5721435546875,35.888587951660156 Q 744.6693115234375,145.97341918945312 141.76463317871094,203.43630981445312" fill="none" stroke="rgb(2,2,6)" stroke-width="15.003227233886719" stroke-opacity="0.2774101793766022" stroke-linecap="round" filter="url(#softBlur)" />
  <path d="M 505.88287353515625,215.60159301757812 Q 655.69482421875,109.20943450927734 350.2624206542969,327.5451354980469" fill="none" stroke="rgb(246,189,57)" stroke-width="2.4453928470611572" stroke-opacity="0.16469843685626984" stroke-linecap="round"  />
  <path d="M 591.4024658203125,183.20347595214844 Q 591.1260986328125,242.17367553710938 222.67506408691406,53.7296028137207" fill="none" stroke="rgb(1,123,4)" stroke-width="18.594341278076172" stroke-opacity="0.2845969498157501" stroke-linecap="round" filter="url(#softBlur)" />
  <path d="M 695.2025756835938,236.0821990966797 Q 581.6943359375,169.60025024414062 453.9409484863281,84.39378356933594" fill="none" stroke="rgb(210,1,244)" stroke-width="30.651201248168945" stroke-opacity="0.0673435777425766" stroke-linecap="round" filter="url(#softBlur)" />
  <path d="M 270.8388671875,314.0412902832031 Q 86.34774017333984,271.4503173828125 581.868896484375,426.1004638671875" fill="none" stroke="rgb(232,218,2)" stroke-width="26.78217315673828" stroke-opacity="0.9472729563713074" stroke-linecap="round" filter="url(#softBlur)" />
  <path d="M 307.7614440917969,80.44959259033203 Q 551.1240234375,383.9137268066406 505.5088195800781,213.52166748046875" fill="none" stroke="rgb(24,0,7)" stroke-width="17.214908599853516" stroke-opacity="0.689696729183197" stroke-linecap="round" filter="url(#softBlur)" />
  <path d="M 431.5637512207031,433.4336853027344 Q 532.0354614257812,327.9374694824219 94.14248657226562,223.7427978515625" fill="none" stroke="rgb(98,80,3)" stroke-width="17.15654754638672" stroke-opacity="0.6592074632644653" stroke-linecap="round" filter="url(#softBlur)" />
  <path d="M 625.6129150390625,430.2862854003906 Q 99.48712158203125,345.16290283203125 149.04779052734375,326.9369201660156" fill="none" stroke="rgb(195,195,86)" stroke-width="3.2675514221191406" stroke-opacity="0.012409793213009834" stroke-linecap="round"  />
  <path d="M 271.53094482421875,322.8255615234375 Q 843.092041015625,340.2903137207031 712.8709106445312,274.4522399902344" fill="none" stroke="rgb(210,212,0)" stroke-width="72.60796356201172" stroke-opacity="0.9868545532226562" stroke-linecap="round" filter="url(#softBlur)" />
  <path d="M 92.9429702758789,413.4713134765625 Q 501.9580078125,81.99759674072266 746.5318603515625,438.8967590332031" fill="none" stroke="rgb(6,0,5)" stroke-width="27.55940818786621" stroke-opacity="0.3131282329559326" stroke-linecap="round" filter="url(#softBlur)" />
  <path d="M 511.6801452636719,169.0701141357422 Q 250.22830200195312,315.40325927734375 529.9449462890625,61.34059143066406" fill="none" stroke="rgb(198,198,1)" stroke-width="31.522958755493164" stroke-opacity="0.99730384349823" stroke-linecap="round" filter="url(#softBlur)" />
  <path d="M 391.4596862792969,462.6711730957031 Q 547.5728149414062,155.66500854492188 189.7962646484375,194.52040100097656" fill="none" stroke="rgb(204,201,0)" stroke-width="67.806396484375" stroke-opacity="0.9633678197860718" stroke-linecap="round" filter="url(#softBlur)" />
  <path d="M 149.84423828125,-25.843582153320312 Q -26.523263931274414,56.773887634277344 513.4205322265625,405.29351806640625" fill="none" stroke="rgb(182,172,5)" stroke-width="13.652815818786621" stroke-opacity="0.8758085370063782" stroke-linecap="round" filter="url(#softBlur)" />
  <path d="M 45.019615173339844,26.14620590209961 Q 310.31304931640625,269.2695617675781 682.23974609375,241.2056427001953" fill="none" stroke="rgb(199,210,3)" stroke-width="61.81612014770508" stroke-opacity="0.005323067773133516" stroke-linecap="round" filter="url(#softBlur)" />
  <path d="M 41.02567672729492,306.75128173828125 Q 698.2091674804688,399.2986755371094 293.09832763671875,76.65196990966797" fill="none" stroke="rgb(207,207,0)" stroke-width="65.67752838134766" stroke-opacity="0.9994097948074341" stroke-linecap="round" filter="url(#softBlur)" />
  <path d="M 508.0034484863281,376.25341796875 Q 183.00045776367188,410.2051696777344 754.3831787109375,67.04298400878906" fill="none" stroke="rgb(84,7,79)" stroke-width="3.315237045288086" stroke-opacity="0.02568700909614563" stroke-linecap="round"  />
  <path d="M 519.2550048828125,36.96161651611328 Q 488.7569580078125,-13.41454029083252 204.81666564941406,335.5269470214844" fill="none" stroke="rgb(250,247,3)" stroke-width="20.97073745727539" stroke-opacity="0.1080542579293251" stroke-linecap="round" filter="url(#softBlur)" />
</svg>